Coordinates
version=1
nRows=17
nColumns=40
inDegrees=yes

Units are S.I. units (second, meters, Newtons, ...)
Angles are in degrees.

endheader
time	pelvis_tilt	pelvis_list	pelvis_rotation	pelvis_tx	pelvis_ty	pelvis_tz	hip_flexion_r	hip_adduction_r	hip_rotation_r	knee_angle_r	knee_angle_r_beta	ankle_angle_r	subtalar_angle_r	mtp_angle_r	hip_flexion_l	hip_adduction_l	hip_rotation_l	knee_angle_l	knee_angle_l_beta	ankle_angle_l	subtalar_angle_l	mtp_angle_l	lumbar_extension	lumbar_bending	lumbar_rotation	arm_flex_r	arm_add_r	arm_rot_r	elbow_flex_r	pro_sup_r	wrist_flex_r	wrist_dev_r	arm_flex_l	arm_add_l	arm_rot_l	elbow_flex_l	pro_sup_l	wrist_flex_l	wrist_dev_l
     52.65000000	     -3.25166165	     -4.10968689	     -1.36745790	      0.78389766	      0.93272199	      0.43832603	     26.70412586	     -5.98309745	     -4.13612117	     66.53065816	     66.53065816	      1.20898515	     -9.37525322	     -2.90859749	     14.86089688	     -4.21340532	     -8.25182266	     22.33441016	     22.33441016	     13.11409102	    -10.18199731	      0.73840114	     -9.71078693	      5.39339475	      2.00589010	      0.63909100	    -12.28779536	     -1.92196432	     26.14905884	     46.27130143	      0.00000000	      0.00000000	     16.11047732	    -13.91949866	     -3.36688288	     45.59363532	     45.99363406	      0.00000000	      0.00000000
     52.66335714	     -3.36990234	     -4.23061495	     -1.59845166	      0.78258812	      0.93383692	      0.43807009	     27.83214941	     -5.71772618	     -4.49956873	     65.60025299	     65.60025299	      1.44069718	     -9.52815776	     -2.89775071	     14.07382314	     -4.32894532	     -8.66355912	     21.47768137	     21.47768137	     13.23168984	     -9.60298438	      0.71676493	     -9.69917911	      5.44190550	      1.71335834	     -0.96916836	    -12.32343599	     -1.94021588	     25.57890455	     46.28386054	      0.00000000	      0.00000000	     17.14000693	    -14.48115594	     -3.66830806	     46.33876128	     46.04612142	      0.00000000	      0.00000000
     52.67671429	     -3.50107656	     -4.38059833	     -1.79878351	      0.78125159	      0.93473584	      0.43783692	     28.89545508	     -5.44774508	     -4.94413026	     64.51689581	     64.51689581	      1.60727655	     -9.52688864	     -2.83803197	     13.40780015	     -4.45842793	     -8.93923126	     20.79642597	     20.79642597	     13.36130497	     -9.21655008	      0.69901877	     -9.64113667	      5.53191502	      1.26234978	     -2.55656556	    -12.36744845	     -1.97336980	     25.07605749	     46.29396220	      0.00000000	      0.00000000	     18.19320211	    -15.27094996	     -3.98352866	     46.99920985	     46.09634181	      0.00000000	      0.00000000
     52.69007143	     -3.45504965	     -4.44660762	     -2.09662147	      0.78008965	      0.93600208	      0.43773037	     29.61138146	     -5.15638441	     -5.22651007	     63.09074860	     63.09074860	      1.79979487	     -9.56785170	     -2.71998865	     12.29522365	     -4.52169716	     -9.62214089	     19.68579779	     19.68579779	     13.40776713	     -8.32210815	      0.47967652	     -9.89355689	      5.50217659	      1.50714250	     -4.41391501	    -12.50266602	     -2.10658396	     24.68650071	     46.30623783	      0.00000000	      0.00000000	     19.27480614	    -15.49318575	     -4.46927345	     48.44377180	     46.17609143	      0.00000000	      0.00000000
     52.70342857	     -3.65099892	     -4.59788177	     -2.26692697	      0.77871527	      0.93663721	      0.43762362	     30.46445831	     -4.86180379	     -5.75264976	     61.40356983	     61.40356983	      1.99863439	     -9.47557436	     -2.55557708	     11.70963502	     -4.65135147	     -9.89488438	     18.98276125	     18.98276125	     13.47418523	     -7.88039744	      0.38301107	     -9.81196119	      5.58094549	      1.13231946	     -5.92284193	    -12.57765364	     -2.20871611	     24.35344927	     46.31554438	      0.00000000	      0.00000000	     20.17309966	    -16.15258571	     -4.82835190	     49.19861036	     46.22980410	      0.00000000	      0.00000000
     52.71678571	     -3.71361243	     -4.68920572	     -2.50968633	      0.77749665	      0.93737370	      0.43764086	     31.00799406	     -4.56599536	     -6.17886470	     59.32944151	     59.32944151	      2.19751983	     -9.32866663	     -2.33074347	     10.88422258	     -4.71984748	    -10.35664808	     18.13445447	     18.13445447	     13.55008198	     -7.32417631	      0.20268006	     -9.85139304	      5.60406965	      1.01342975	     -7.41302993	    -12.71055793	     -2.36006591	     24.10641287	     46.32585505	      0.00000000	      0.00000000	     21.06727177	    -16.57181560	     -5.23984359	     50.21353563	     46.29162539	      0.00000000	      0.00000000
     52.73014286	     -3.75304904	     -4.77260449	     -2.76740276	      0.77625940	      0.93795194	      0.43781557	     31.37539839	     -4.24515309	     -6.59699600	     56.88717607	     56.88717607	      2.41564340	     -9.06085312	     -2.11778785	     10.03419991	     -4.78388835	    -10.84467610	     17.27489697	     17.27489697	     13.61034543	     -6.68592920	     -0.12161231	     -9.97520360	      5.59235508	      1.00164882	     -8.88028265	    -12.84772309	     -2.59142203	     24.01143601	     46.33687323	      0.00000000	      0.00000000	     21.88207972	    -16.86827736	     -5.73099763	     51.40619893	     46.36273303	      0.00000000	      0.00000000
     52.74350000	     -3.92778302	     -4.81636969	     -2.96876931	      0.77492444	      0.93811753	      0.43803366	     31.72215763	     -3.96275419	     -7.04434793	     54.06294161	     54.06294161	      2.68630633	     -8.70735618	     -1.91582576	      9.46860381	     -4.81564029	    -11.22476001	     16.62763449	     16.62763449	     13.65931533	     -6.25139533	     -0.39941627	     -9.93093189	      5.57858547	      0.84965802	    -10.15581022	    -12.97174262	     -2.79645064	     23.91569990	     46.34715952	      0.00000000	      0.00000000	     22.64437847	    -17.32409863	     -6.16315626	     52.32933414	     46.42280043	      0.00000000	      0.00000000
     52.75685714	     -3.97508862	     -4.79307052	     -3.24277011	      0.77372957	      0.93822935	      0.43848639	     31.76712106	     -3.68907559	     -7.41293427	     50.86190224	     50.86190224	      2.83559670	     -8.27707954	     -2.18237478	      8.65340886	     -4.80115698	    -11.92210907	     15.80212558	     15.80212558	     13.52647082	     -5.44600267	     -1.51194935	    -10.09443522	      5.41017309	      0.98345514	    -11.65182861	    -13.06787912	     -3.56410164	     24.59648044	     46.37113720	      0.00000000	      0.00000000	     23.13422680	    -17.45699484	     -7.19694712	     54.28286460	     46.55736031	      0.00000000	      0.00000000
     52.77021429	     -4.18437620	     -4.86464130	     -3.43719784	      0.77243902	      0.93795745	      0.43894023	     31.78576500	     -3.32171557	     -7.90842570	     47.28900813	     47.28900813	      3.08969220	     -7.67246387	     -1.96286706	      8.20905376	     -4.85477014	    -12.11506788	     15.31597602	     15.31597602	     13.65535652	     -5.29532668	     -1.75946700	     -9.98272090	      5.43266220	      0.75162740	    -12.56971895	    -13.22160088	     -3.76877470	     24.49473428	     46.38496421	      0.00000000	      0.00000000	     23.74398057	    -17.84731803	     -7.50235614	     54.88051151	     46.59986536	      0.00000000	      0.00000000
     52.78357143	     -4.29011878	     -4.80885046	     -3.68503385	      0.77131531	      0.93760851	      0.43952378	     31.50530234	     -3.03761404	     -8.33778058	     43.36648207	     43.36648207	      3.06815033	     -6.96565341	     -2.75869374	      7.50635950	     -4.78020426	    -12.63250744	     14.55948619	     14.55948619	     13.43104933	     -4.80472519	     -2.99155460	    -10.05840330	      5.28472898	      0.81322414	    -13.68765748	    -13.26480772	     -4.76023094	     25.01905809	     46.43774693	      0.00000000	      0.00000000	     24.11467286	    -17.90921160	     -8.46705058	     56.50205030	     46.72833015	      0.00000000	      0.00000000
     52.79692857	     -4.52538760	     -4.77102051	     -3.86185270	      0.77010189	      0.93689625	      0.44015757	     31.23784183	     -2.69823130	     -8.79644176	     39.29212015	     39.29212015	      3.33048625	     -6.14048702	     -2.34025848	      7.16671346	     -4.72755761	    -12.77923757	     14.21396406	     14.21396406	     13.63159353	     -4.75712012	     -3.19674469	     -9.90790745	      5.20207402	      0.68911133	    -14.31161726	    -13.35953698	     -4.89992610	     24.87566329	     46.45005782	      0.00000000	      0.00000000	     24.65987591	    -18.21852761	     -8.63631497	     56.92343028	     46.75493827	      0.00000000	      0.00000000
     52.81028571	     -4.56931182	     -4.69986527	     -4.04448186	      0.76917160	      0.93633169	      0.44083068	     30.54655595	     -2.39196116	     -9.33719508	     34.98811781	     34.98811781	      3.55751912	     -4.88802401	     -1.99605600	      6.49611197	     -4.62087948	    -13.06972934	     13.67919785	     13.67919785	     13.75349388	     -4.46711083	     -3.63840066	    -10.01850866	      5.07858207	      0.78064585	    -14.94124610	    -13.44970683	     -5.18708329	     24.78683400	     46.47252909	      0.00000000	      0.00000000	     25.16018282	    -18.29281482	     -8.90655325	     57.66199467	     46.79724640	      0.00000000	      0.00000000
     52.82364286	     -4.71991259	     -4.58348453	     -4.19326573	      0.76834382	      0.93537726	      0.44156449	     29.91616175	     -2.09854167	     -9.87815871	     30.77736007	     30.77736007	      3.72281192	     -3.66271034	     -1.39693754	      6.01451172	     -4.48163390	    -13.25827532	     13.28118329	     13.28118329	     13.94322578	     -4.26358462	     -4.09070821	     -9.94172254	      4.94704269	      0.81816950	    -15.41626404	    -13.51128623	     -5.42738958	     24.74225047	     46.49029756	      0.00000000	      0.00000000	     25.50997473	    -18.35671948	     -9.12203971	     58.24658380	     46.83000375	      0.00000000	      0.00000000
     52.83700000	     -4.89611925	     -4.41432319	     -4.34126416	      0.76767471	      0.93420884	      0.44242713	     29.25528653	     -1.81853623	    -10.41112251	     26.72825880	     26.72825880	      3.82617895	     -2.37384953	     -0.59350449	      5.56881768	     -4.29466684	    -13.45881056	     12.91255122	     12.91255122	     14.15038815	     -4.10216393	     -4.51303603	     -9.79629876	      4.74455262	      0.88268454	    -15.72593130	    -13.49039019	     -5.61032351	     24.72626421	     46.50328698	      0.00000000	      0.00000000	     25.79088326	    -18.38450061	     -9.29500680	     58.74172551	     46.85660547	      0.00000000	      0.00000000
     52.85035714	     -4.89073111	     -4.21001926	     -4.44093169	      0.76733993	      0.93312309	      0.44318217	     28.46544187	     -1.68992384	    -11.24114076	     23.24031524	     23.24031524	      4.52769021	     -0.44884143	      1.92362688	      4.80970858	     -4.02397195	    -13.68720403	     12.29362210	     12.29362210	     13.72889950	     -4.04300425	     -6.47898842	     -9.88773186	      4.54351102	      0.79135508	    -15.85694649	    -13.40859662	     -7.19943426	     24.83413826	     46.62776763	      0.00000000	      0.00000000	     25.63051630	    -18.24833300	    -10.32672257	     60.03640731	     46.99746863	      0.00000000	      0.00000000
     52.86371429	     -5.04225542	     -3.98393957	     -4.51729628	      0.76706193	      0.93173127	      0.44408115	     27.81936950	     -1.47287164	    -11.79477749	     20.00301766	     20.00301766	      4.42763088	      0.64844776	      2.84318191	      4.36103314	     -3.76418773	    -13.73640177	     11.99869158	     11.99869158	     14.03868938	     -3.98290374	     -6.66640078	     -9.72072072	      4.36154467	      0.88830963	    -15.91504688	    -13.35483989	     -7.28202151	     24.76728042	     46.63621858	      0.00000000	      0.00000000	     25.78338808	    -18.17113885	    -10.31751082	     60.20338525	     47.00419398	      0.00000000	      0.00000000
